<mxfile host="65bd71144e">
    <diagram id="jaVrqR80xGOv_TlFT10X" name="Page-1">
        <mxGraphModel dx="4162" dy="672" grid="1" gridSize="10" guides="1" tooltips="1" connect="1" arrows="1" fold="1" page="1" pageScale="1" pageWidth="850" pageHeight="1100" math="0" shadow="0">
            <root>
                <mxCell id="0"/>
                <mxCell id="1" parent="0"/>
                <mxCell id="55" style="edgeStyle=none;html=1;entryX=0;entryY=0.5;entryDx=0;entryDy=0;fontFamily=Verdana;fontSize=14;" edge="1" parent="1" source="29" target="43">
                    <mxGeometry relative="1" as="geometry"/>
                </mxCell>
                <mxCell id="29" value="&lt;font face=&quot;Verdana&quot;&gt;JavaScript&lt;br&gt;&lt;/font&gt;" style="rounded=1;whiteSpace=wrap;html=1;fontSize=14;arcSize=27;" vertex="1" parent="1">
                    <mxGeometry x="520" y="1410" width="120" height="60" as="geometry"/>
                </mxCell>
                <mxCell id="31" value="Variáveis" style="rounded=1;whiteSpace=wrap;html=1;fontFamily=Verdana;fontSize=14;" vertex="1" parent="1">
                    <mxGeometry x="680" y="1200" width="120" height="60" as="geometry"/>
                </mxCell>
                <mxCell id="33" value="Tipos de dados" style="rounded=1;whiteSpace=wrap;html=1;fontFamily=Verdana;fontSize=14;" vertex="1" parent="1">
                    <mxGeometry x="680" y="1270" width="120" height="60" as="geometry"/>
                </mxCell>
                <mxCell id="34" value="Operadores" style="rounded=1;whiteSpace=wrap;html=1;fontFamily=Verdana;fontSize=14;" vertex="1" parent="1">
                    <mxGeometry x="680" y="1340" width="120" height="60" as="geometry"/>
                </mxCell>
                <mxCell id="37" value="Estruturas Condicionais" style="rounded=1;whiteSpace=wrap;html=1;fontFamily=Verdana;fontSize=14;" vertex="1" parent="1">
                    <mxGeometry x="680" y="1490" width="120" height="60" as="geometry"/>
                </mxCell>
                <mxCell id="39" value="Funções&lt;span style=&quot;color: rgba(0, 0, 0, 0); font-family: monospace; font-size: 0px; text-align: start;&quot;&gt;%3CmxGraphModel%3E%3Croot%3E%3CmxCell%20id%3D%220%22%2F%3E%3CmxCell%20id%3D%221%22%20parent%3D%220%22%2F%3E%3CmxCell%20id%3D%222%22%20value%3D%22Vari%C3%A1veis%22%20style%3D%22rounded%3D1%3BwhiteSpace%3Dwrap%3Bhtml%3D1%3BfontFamily%3DVerdana%3BfontSize%3D14%3B%22%20vertex%3D%221%22%20parent%3D%221%22%3E%3CmxGeometry%20x%3D%22510%22%20y%3D%221110%22%20width%3D%22120%22%20height%3D%2260%22%20as%3D%22geometry%22%2F%3E%3C%2FmxCell%3E%3CmxCell%20id%3D%223%22%20value%3D%22Tipos%20de%20dados%22%20style%3D%22rounded%3D1%3BwhiteSpace%3Dwrap%3Bhtml%3D1%3BfontFamily%3DVerdana%3BfontSize%3D14%3B%22%20vertex%3D%221%22%20parent%3D%221%22%3E%3CmxGeometry%20x%3D%22510%22%20y%3D%221180%22%20width%3D%22120%22%20height%3D%2260%22%20as%3D%22geometry%22%2F%3E%3C%2FmxCell%3E%3CmxCell%20id%3D%224%22%20value%3D%22Operadores%22%20style%3D%22rounded%3D1%3BwhiteSpace%3Dwrap%3Bhtml%3D1%3BfontFamily%3DVerdana%3BfontSize%3D14%3B%22%20vertex%3D%221%22%20parent%3D%221%22%3E%3CmxGeometry%20x%3D%22510%22%20y%3D%221250%22%20width%3D%22120%22%20height%3D%2260%22%20as%3D%22geometry%22%2F%3E%3C%2FmxCell%3E%3C%2Froot%3E%3C%2FmxGraphModel%3E&lt;/span&gt;" style="rounded=1;whiteSpace=wrap;html=1;fontFamily=Verdana;fontSize=14;" vertex="1" parent="1">
                    <mxGeometry x="680" y="1630" width="120" height="60" as="geometry"/>
                </mxCell>
                <mxCell id="40" value="Laços de Repetições" style="rounded=1;whiteSpace=wrap;html=1;fontFamily=Verdana;fontSize=14;" vertex="1" parent="1">
                    <mxGeometry x="680" y="1560" width="120" height="60" as="geometry"/>
                </mxCell>
                <mxCell id="41" value="Estruturas Condicionais" style="rounded=1;whiteSpace=wrap;html=1;fontFamily=Verdana;fontSize=14;" vertex="1" parent="1">
                    <mxGeometry x="930" y="1320" width="120" height="60" as="geometry"/>
                </mxCell>
                <mxCell id="42" value="Arrays" style="rounded=1;whiteSpace=wrap;html=1;fontFamily=Verdana;fontSize=14;" vertex="1" parent="1">
                    <mxGeometry x="930" y="1490" width="120" height="60" as="geometry"/>
                </mxCell>
                <mxCell id="43" value="Laços de Repetições" style="rounded=1;whiteSpace=wrap;html=1;fontFamily=Verdana;fontSize=14;" vertex="1" parent="1">
                    <mxGeometry x="1030" y="1410" width="120" height="60" as="geometry"/>
                </mxCell>
                <mxCell id="46" value="" style="edgeStyle=elbowEdgeStyle;elbow=vertical;endArrow=classic;html=1;curved=0;rounded=0;endSize=8;startSize=8;fontFamily=Verdana;fontSize=14;entryX=0;entryY=0.5;entryDx=0;entryDy=0;" edge="1" parent="1" target="33">
                    <mxGeometry width="50" height="50" relative="1" as="geometry">
                        <mxPoint x="610" y="1410" as="sourcePoint"/>
                        <mxPoint x="660" y="1360" as="targetPoint"/>
                        <Array as="points">
                            <mxPoint x="640" y="1300"/>
                        </Array>
                    </mxGeometry>
                </mxCell>
                <mxCell id="47" value="" style="edgeStyle=elbowEdgeStyle;elbow=vertical;endArrow=classic;html=1;curved=0;rounded=0;endSize=8;startSize=8;fontFamily=Verdana;fontSize=14;entryX=0;entryY=0.5;entryDx=0;entryDy=0;exitX=1;exitY=0;exitDx=0;exitDy=0;" edge="1" parent="1" source="29" target="34">
                    <mxGeometry width="50" height="50" relative="1" as="geometry">
                        <mxPoint x="640.0000000000001" y="1430" as="sourcePoint"/>
                        <mxPoint x="770" y="1420" as="targetPoint"/>
                        <Array as="points">
                            <mxPoint x="580" y="1370"/>
                        </Array>
                    </mxGeometry>
                </mxCell>
                <mxCell id="48" value="" style="edgeStyle=elbowEdgeStyle;elbow=vertical;endArrow=classic;html=1;curved=0;rounded=0;endSize=8;startSize=8;fontFamily=Verdana;fontSize=14;entryX=0;entryY=0.5;entryDx=0;entryDy=0;entryPerimeter=0;exitX=0.5;exitY=0;exitDx=0;exitDy=0;" edge="1" parent="1" source="29" target="31">
                    <mxGeometry width="50" height="50" relative="1" as="geometry">
                        <mxPoint x="530.0000000000001" y="1250" as="sourcePoint"/>
                        <mxPoint x="660" y="1240" as="targetPoint"/>
                        <Array as="points">
                            <mxPoint x="720" y="1230"/>
                            <mxPoint x="590" y="1230"/>
                        </Array>
                    </mxGeometry>
                </mxCell>
                <mxCell id="50" value="" style="edgeStyle=elbowEdgeStyle;elbow=horizontal;endArrow=classic;html=1;curved=0;rounded=0;endSize=8;startSize=8;fontFamily=Verdana;fontSize=14;entryX=0;entryY=0.5;entryDx=0;entryDy=0;exitX=1;exitY=1;exitDx=0;exitDy=0;" edge="1" parent="1" source="29" target="37">
                    <mxGeometry width="50" height="50" relative="1" as="geometry">
                        <mxPoint x="610" y="1530" as="sourcePoint"/>
                        <mxPoint x="660" y="1480" as="targetPoint"/>
                        <Array as="points">
                            <mxPoint x="640" y="1500"/>
                        </Array>
                    </mxGeometry>
                </mxCell>
                <mxCell id="51" value="" style="edgeStyle=elbowEdgeStyle;elbow=vertical;endArrow=classic;html=1;curved=0;rounded=0;endSize=8;startSize=8;fontFamily=Verdana;fontSize=14;entryX=0;entryY=0.5;entryDx=0;entryDy=0;exitX=0.75;exitY=1;exitDx=0;exitDy=0;" edge="1" parent="1" source="29" target="40">
                    <mxGeometry width="50" height="50" relative="1" as="geometry">
                        <mxPoint x="520" y="1580" as="sourcePoint"/>
                        <mxPoint x="650" y="1570" as="targetPoint"/>
                        <Array as="points">
                            <mxPoint x="650" y="1590"/>
                        </Array>
                    </mxGeometry>
                </mxCell>
                <mxCell id="52" value="" style="edgeStyle=elbowEdgeStyle;elbow=horizontal;endArrow=classic;html=1;curved=0;rounded=0;endSize=8;startSize=8;fontFamily=Verdana;fontSize=14;entryX=0;entryY=0.5;entryDx=0;entryDy=0;exitX=0.5;exitY=1;exitDx=0;exitDy=0;" edge="1" parent="1" source="29" target="39">
                    <mxGeometry width="50" height="50" relative="1" as="geometry">
                        <mxPoint x="625" y="1730" as="sourcePoint"/>
                        <mxPoint x="675" y="1680" as="targetPoint"/>
                        <Array as="points">
                            <mxPoint x="580" y="1620"/>
                        </Array>
                    </mxGeometry>
                </mxCell>
                <mxCell id="54" value="" style="edgeStyle=elbowEdgeStyle;elbow=vertical;endArrow=classic;html=1;curved=0;rounded=0;endSize=8;startSize=8;fontFamily=Verdana;fontSize=14;entryX=0.25;entryY=1;entryDx=0;entryDy=0;" edge="1" parent="1" source="29" target="41">
                    <mxGeometry width="50" height="50" relative="1" as="geometry">
                        <mxPoint x="650" y="1430" as="sourcePoint"/>
                        <mxPoint x="740" y="1410" as="targetPoint"/>
                        <Array as="points">
                            <mxPoint x="810" y="1430"/>
                        </Array>
                    </mxGeometry>
                </mxCell>
                <mxCell id="56" value="" style="edgeStyle=elbowEdgeStyle;elbow=vertical;endArrow=classic;html=1;curved=0;rounded=0;endSize=8;startSize=8;fontFamily=Verdana;fontSize=14;entryX=0.25;entryY=0;entryDx=0;entryDy=0;exitX=1;exitY=0.75;exitDx=0;exitDy=0;" edge="1" parent="1" source="29" target="42">
                    <mxGeometry width="50" height="50" relative="1" as="geometry">
                        <mxPoint x="690" y="1460" as="sourcePoint"/>
                        <mxPoint x="980" y="1480" as="targetPoint"/>
                        <Array as="points">
                            <mxPoint x="800" y="1450"/>
                            <mxPoint x="810" y="1450"/>
                        </Array>
                    </mxGeometry>
                </mxCell>
                <mxCell id="72" style="edgeStyle=none;html=1;fontFamily=Verdana;fontSize=14;" edge="1" parent="1" source="57" target="63">
                    <mxGeometry relative="1" as="geometry"/>
                </mxCell>
                <mxCell id="57" value="&lt;font face=&quot;Verdana&quot;&gt;JavaScript&lt;br&gt;&lt;/font&gt;" style="rounded=1;whiteSpace=wrap;html=1;fontSize=14;arcSize=27;" vertex="1" parent="1">
                    <mxGeometry x="380" y="1410" width="120" height="60" as="geometry"/>
                </mxCell>
                <mxCell id="58" value="Escopo" style="rounded=1;whiteSpace=wrap;html=1;fontFamily=Verdana;fontSize=14;" vertex="1" parent="1">
                    <mxGeometry x="220" y="1200" width="120" height="60" as="geometry"/>
                </mxCell>
                <mxCell id="59" value="Hoisting" style="rounded=1;whiteSpace=wrap;html=1;fontFamily=Verdana;fontSize=14;" vertex="1" parent="1">
                    <mxGeometry x="220" y="1270" width="120" height="60" as="geometry"/>
                </mxCell>
                <mxCell id="61" value="Objetos" style="rounded=1;whiteSpace=wrap;html=1;fontFamily=Verdana;fontSize=14;" vertex="1" parent="1">
                    <mxGeometry x="220" y="1340" width="120" height="60" as="geometry"/>
                </mxCell>
                <mxCell id="62" value="Desestruturação" style="rounded=1;whiteSpace=wrap;html=1;fontFamily=Verdana;fontSize=14;" vertex="1" parent="1">
                    <mxGeometry x="50" y="1340" width="120" height="60" as="geometry"/>
                </mxCell>
                <mxCell id="63" value="DOM" style="rounded=1;whiteSpace=wrap;html=1;fontFamily=Verdana;fontSize=14;" vertex="1" parent="1">
                    <mxGeometry x="-80" y="1410" width="120" height="60" as="geometry"/>
                </mxCell>
                <mxCell id="65" value="Eventos" style="rounded=1;whiteSpace=wrap;html=1;fontFamily=Verdana;fontSize=14;" vertex="1" parent="1">
                    <mxGeometry x="50" y="1480" width="120" height="60" as="geometry"/>
                </mxCell>
                <mxCell id="66" value="Arrow Function" style="rounded=1;whiteSpace=wrap;html=1;fontFamily=Verdana;fontSize=14;" vertex="1" parent="1">
                    <mxGeometry x="220" y="1490" width="120" height="60" as="geometry"/>
                </mxCell>
                <mxCell id="67" value="Templete Literals" style="rounded=1;whiteSpace=wrap;html=1;fontFamily=Verdana;fontSize=14;" vertex="1" parent="1">
                    <mxGeometry x="220" y="1560" width="120" height="60" as="geometry"/>
                </mxCell>
                <mxCell id="68" value="Modules" style="rounded=1;whiteSpace=wrap;html=1;fontFamily=Verdana;fontSize=14;" vertex="1" parent="1">
                    <mxGeometry x="220" y="1630" width="120" height="60" as="geometry"/>
                </mxCell>
                <mxCell id="69" value="" style="edgeStyle=elbowEdgeStyle;elbow=horizontal;endArrow=classic;html=1;curved=0;rounded=0;endSize=8;startSize=8;fontFamily=Verdana;fontSize=14;entryX=1;entryY=0.5;entryDx=0;entryDy=0;exitX=0;exitY=0;exitDx=0;exitDy=0;" edge="1" parent="1" source="57" target="61">
                    <mxGeometry width="50" height="50" relative="1" as="geometry">
                        <mxPoint x="440" y="1380" as="sourcePoint"/>
                        <mxPoint x="490" y="1330" as="targetPoint"/>
                        <Array as="points">
                            <mxPoint x="380" y="1380"/>
                        </Array>
                    </mxGeometry>
                </mxCell>
                <mxCell id="70" value="" style="edgeStyle=segmentEdgeStyle;endArrow=classic;html=1;curved=0;rounded=0;endSize=8;startSize=8;fontFamily=Verdana;fontSize=14;entryX=1;entryY=0.5;entryDx=0;entryDy=0;exitX=0.25;exitY=0;exitDx=0;exitDy=0;" edge="1" parent="1" source="57" target="59">
                    <mxGeometry width="50" height="50" relative="1" as="geometry">
                        <mxPoint x="440" y="1380" as="sourcePoint"/>
                        <mxPoint x="490" y="1330" as="targetPoint"/>
                        <Array as="points">
                            <mxPoint x="410" y="1300"/>
                        </Array>
                    </mxGeometry>
                </mxCell>
                <mxCell id="71" value="" style="edgeStyle=segmentEdgeStyle;endArrow=classic;html=1;curved=0;rounded=0;endSize=8;startSize=8;fontFamily=Verdana;fontSize=14;entryX=1;entryY=0.5;entryDx=0;entryDy=0;exitX=0.5;exitY=0;exitDx=0;exitDy=0;" edge="1" parent="1" source="57" target="58">
                    <mxGeometry width="50" height="50" relative="1" as="geometry">
                        <mxPoint x="440" y="1380" as="sourcePoint"/>
                        <mxPoint x="490" y="1330" as="targetPoint"/>
                        <Array as="points">
                            <mxPoint x="440" y="1230"/>
                        </Array>
                    </mxGeometry>
                </mxCell>
                <mxCell id="73" value="" style="edgeStyle=elbowEdgeStyle;elbow=vertical;endArrow=classic;html=1;curved=0;rounded=0;endSize=8;startSize=8;fontFamily=Verdana;fontSize=14;entryX=0.75;entryY=0;entryDx=0;entryDy=0;" edge="1" parent="1" target="65">
                    <mxGeometry width="50" height="50" relative="1" as="geometry">
                        <mxPoint x="380" y="1450" as="sourcePoint"/>
                        <mxPoint x="150" y="1460" as="targetPoint"/>
                        <Array as="points">
                            <mxPoint x="260" y="1450"/>
                        </Array>
                    </mxGeometry>
                </mxCell>
                <mxCell id="74" value="" style="edgeStyle=segmentEdgeStyle;endArrow=classic;html=1;curved=0;rounded=0;endSize=8;startSize=8;fontFamily=Verdana;fontSize=14;entryX=0.75;entryY=1;entryDx=0;entryDy=0;exitX=0.002;exitY=0.343;exitDx=0;exitDy=0;exitPerimeter=0;" edge="1" parent="1" source="57" target="62">
                    <mxGeometry width="50" height="50" relative="1" as="geometry">
                        <mxPoint x="120" y="1520" as="sourcePoint"/>
                        <mxPoint x="170" y="1470" as="targetPoint"/>
                    </mxGeometry>
                </mxCell>
                <mxCell id="75" value="" style="edgeStyle=elbowEdgeStyle;elbow=vertical;endArrow=classic;html=1;curved=0;rounded=0;endSize=8;startSize=8;fontFamily=Verdana;fontSize=14;exitX=0;exitY=1;exitDx=0;exitDy=0;entryX=1;entryY=0.5;entryDx=0;entryDy=0;" edge="1" parent="1" source="57" target="66">
                    <mxGeometry width="50" height="50" relative="1" as="geometry">
                        <mxPoint x="470" y="1600" as="sourcePoint"/>
                        <mxPoint x="342" y="1550" as="targetPoint"/>
                        <Array as="points">
                            <mxPoint x="360" y="1520"/>
                            <mxPoint x="350" y="1510"/>
                            <mxPoint x="350" y="1520"/>
                            <mxPoint x="380" y="1520"/>
                        </Array>
                    </mxGeometry>
                </mxCell>
                <mxCell id="76" value="" style="edgeStyle=segmentEdgeStyle;endArrow=classic;html=1;curved=0;rounded=0;endSize=8;startSize=8;fontFamily=Verdana;fontSize=14;entryX=1;entryY=0.5;entryDx=0;entryDy=0;exitX=0.25;exitY=1;exitDx=0;exitDy=0;" edge="1" parent="1" source="57" target="67">
                    <mxGeometry width="50" height="50" relative="1" as="geometry">
                        <mxPoint x="400" y="1600" as="sourcePoint"/>
                        <mxPoint x="450" y="1550" as="targetPoint"/>
                        <Array as="points">
                            <mxPoint x="410" y="1590"/>
                        </Array>
                    </mxGeometry>
                </mxCell>
                <mxCell id="77" value="" style="edgeStyle=segmentEdgeStyle;endArrow=classic;html=1;curved=0;rounded=0;endSize=8;startSize=8;fontFamily=Verdana;fontSize=14;entryX=1;entryY=0.5;entryDx=0;entryDy=0;exitX=0.5;exitY=1;exitDx=0;exitDy=0;" edge="1" parent="1" source="57" target="68">
                    <mxGeometry width="50" height="50" relative="1" as="geometry">
                        <mxPoint x="370" y="1750" as="sourcePoint"/>
                        <mxPoint x="420" y="1700" as="targetPoint"/>
                        <Array as="points">
                            <mxPoint x="440" y="1660"/>
                        </Array>
                    </mxGeometry>
                </mxCell>
                <mxCell id="95" style="edgeStyle=none;html=1;entryX=0.5;entryY=0;entryDx=0;entryDy=0;fontFamily=Verdana;fontSize=14;" edge="1" parent="1" source="80" target="89">
                    <mxGeometry relative="1" as="geometry"/>
                </mxCell>
                <mxCell id="80" value="&lt;font face=&quot;Verdana&quot;&gt;JavaScript&lt;br&gt;&lt;/font&gt;" style="rounded=1;whiteSpace=wrap;html=1;fontSize=14;arcSize=27;" vertex="1" parent="1">
                    <mxGeometry x="460" y="1740" width="120" height="60" as="geometry"/>
                </mxCell>
                <mxCell id="82" value="Operador Ternário" style="rounded=1;whiteSpace=wrap;html=1;fontFamily=Verdana;fontSize=14;" vertex="1" parent="1">
                    <mxGeometry x="640" y="1760" width="120" height="60" as="geometry"/>
                </mxCell>
                <mxCell id="84" value="Optional Chaining" style="rounded=1;whiteSpace=wrap;html=1;fontFamily=Verdana;fontSize=14;" vertex="1" parent="1">
                    <mxGeometry x="640" y="1830" width="120" height="60" as="geometry"/>
                </mxCell>
                <mxCell id="85" value="Nullsh Coalescing" style="rounded=1;whiteSpace=wrap;html=1;fontFamily=Verdana;fontSize=14;" vertex="1" parent="1">
                    <mxGeometry x="640" y="1900" width="120" height="60" as="geometry"/>
                </mxCell>
                <mxCell id="86" value="SiTimeout&lt;br&gt;setInterval" style="rounded=1;whiteSpace=wrap;html=1;fontFamily=Verdana;fontSize=14;" vertex="1" parent="1">
                    <mxGeometry x="270" y="1760" width="120" height="60" as="geometry"/>
                </mxCell>
                <mxCell id="87" value="CallBack Functions" style="rounded=1;whiteSpace=wrap;html=1;fontFamily=Verdana;fontSize=14;" vertex="1" parent="1">
                    <mxGeometry x="270" y="1830" width="120" height="60" as="geometry"/>
                </mxCell>
                <mxCell id="88" value="Promises" style="rounded=1;whiteSpace=wrap;html=1;fontFamily=Verdana;fontSize=14;" vertex="1" parent="1">
                    <mxGeometry x="280" y="1900" width="120" height="60" as="geometry"/>
                </mxCell>
                <mxCell id="89" value="Async&lt;br&gt;Await" style="rounded=1;whiteSpace=wrap;html=1;fontFamily=Verdana;fontSize=14;" vertex="1" parent="1">
                    <mxGeometry x="460" y="2010" width="120" height="60" as="geometry"/>
                </mxCell>
                <mxCell id="90" value="Try&lt;br&gt;Catch" style="rounded=1;whiteSpace=wrap;html=1;fontFamily=Verdana;fontSize=14;" vertex="1" parent="1">
                    <mxGeometry x="560" y="2070" width="120" height="60" as="geometry"/>
                </mxCell>
                <mxCell id="91" value="Fetch" style="rounded=1;whiteSpace=wrap;html=1;fontFamily=Verdana;fontSize=14;" vertex="1" parent="1">
                    <mxGeometry x="360" y="2070" width="120" height="60" as="geometry"/>
                </mxCell>
                <mxCell id="94" value="" style="edgeStyle=elbowEdgeStyle;elbow=vertical;endArrow=classic;html=1;curved=0;rounded=0;endSize=8;startSize=8;fontFamily=Verdana;fontSize=14;entryX=0.5;entryY=0;entryDx=0;entryDy=0;exitX=0.25;exitY=1;exitDx=0;exitDy=0;" edge="1" parent="1" source="80" target="91">
                    <mxGeometry width="50" height="50" relative="1" as="geometry">
                        <mxPoint x="450" y="1930" as="sourcePoint"/>
                        <mxPoint x="500" y="1880" as="targetPoint"/>
                        <Array as="points">
                            <mxPoint x="460" y="1960"/>
                        </Array>
                    </mxGeometry>
                </mxCell>
                <mxCell id="96" value="" style="edgeStyle=elbowEdgeStyle;elbow=vertical;endArrow=classic;html=1;curved=0;rounded=0;endSize=8;startSize=8;fontFamily=Verdana;fontSize=14;exitX=0.75;exitY=1;exitDx=0;exitDy=0;entryX=0.5;entryY=0;entryDx=0;entryDy=0;" edge="1" parent="1" source="80" target="90">
                    <mxGeometry width="50" height="50" relative="1" as="geometry">
                        <mxPoint x="560" y="1940" as="sourcePoint"/>
                        <mxPoint x="610" y="1890" as="targetPoint"/>
                        <Array as="points">
                            <mxPoint x="590" y="1960"/>
                        </Array>
                    </mxGeometry>
                </mxCell>
                <mxCell id="97" value="" style="edgeStyle=elbowEdgeStyle;elbow=horizontal;endArrow=classic;html=1;curved=0;rounded=0;endSize=8;startSize=8;fontFamily=Verdana;fontSize=14;exitX=1;exitY=0;exitDx=0;exitDy=0;entryX=0;entryY=0.5;entryDx=0;entryDy=0;" edge="1" parent="1" source="80" target="82">
                    <mxGeometry width="50" height="50" relative="1" as="geometry">
                        <mxPoint x="500" y="1740" as="sourcePoint"/>
                        <mxPoint x="630" y="1790" as="targetPoint"/>
                        <Array as="points">
                            <mxPoint x="600" y="1790"/>
                        </Array>
                    </mxGeometry>
                </mxCell>
                <mxCell id="99" value="" style="edgeStyle=elbowEdgeStyle;elbow=horizontal;endArrow=classic;html=1;curved=0;rounded=0;endSize=8;startSize=8;fontFamily=Verdana;fontSize=14;exitX=1;exitY=0.5;exitDx=0;exitDy=0;entryX=0;entryY=0.5;entryDx=0;entryDy=0;" edge="1" parent="1" source="80" target="84">
                    <mxGeometry width="50" height="50" relative="1" as="geometry">
                        <mxPoint x="500" y="1740" as="sourcePoint"/>
                        <mxPoint x="550" y="1690" as="targetPoint"/>
                        <Array as="points">
                            <mxPoint x="590" y="1830"/>
                        </Array>
                    </mxGeometry>
                </mxCell>
                <mxCell id="100" value="" style="edgeStyle=elbowEdgeStyle;elbow=horizontal;endArrow=classic;html=1;curved=0;rounded=0;endSize=8;startSize=8;fontFamily=Verdana;fontSize=14;entryX=0;entryY=0.5;entryDx=0;entryDy=0;" edge="1" parent="1" target="85">
                    <mxGeometry width="50" height="50" relative="1" as="geometry">
                        <mxPoint x="560" y="1800" as="sourcePoint"/>
                        <mxPoint x="550" y="1690" as="targetPoint"/>
                        <Array as="points">
                            <mxPoint x="560" y="1870"/>
                        </Array>
                    </mxGeometry>
                </mxCell>
                <mxCell id="102" value="" style="edgeStyle=elbowEdgeStyle;elbow=horizontal;endArrow=classic;html=1;curved=0;rounded=0;endSize=8;startSize=8;fontFamily=Verdana;fontSize=14;exitX=0.167;exitY=1;exitDx=0;exitDy=0;entryX=1;entryY=0.5;entryDx=0;entryDy=0;exitPerimeter=0;" edge="1" parent="1" source="80" target="88">
                    <mxGeometry width="50" height="50" relative="1" as="geometry">
                        <mxPoint x="500" y="1970" as="sourcePoint"/>
                        <mxPoint x="550" y="1920" as="targetPoint"/>
                        <Array as="points">
                            <mxPoint x="480" y="1870"/>
                        </Array>
                    </mxGeometry>
                </mxCell>
                <mxCell id="103" value="" style="edgeStyle=elbowEdgeStyle;elbow=horizontal;endArrow=classic;html=1;curved=0;rounded=0;endSize=8;startSize=8;fontFamily=Verdana;fontSize=14;exitX=0;exitY=0.5;exitDx=0;exitDy=0;entryX=1;entryY=0.5;entryDx=0;entryDy=0;" edge="1" parent="1" source="80" target="87">
                    <mxGeometry width="50" height="50" relative="1" as="geometry">
                        <mxPoint x="500" y="1970" as="sourcePoint"/>
                        <mxPoint x="550" y="1920" as="targetPoint"/>
                        <Array as="points">
                            <mxPoint x="450" y="1810"/>
                            <mxPoint x="460" y="1820"/>
                        </Array>
                    </mxGeometry>
                </mxCell>
                <mxCell id="104" value="" style="edgeStyle=elbowEdgeStyle;elbow=horizontal;endArrow=classic;html=1;curved=0;rounded=0;endSize=8;startSize=8;fontFamily=Verdana;fontSize=14;exitX=0;exitY=0;exitDx=0;exitDy=0;entryX=1;entryY=0.5;entryDx=0;entryDy=0;" edge="1" parent="1" source="80" target="86">
                    <mxGeometry width="50" height="50" relative="1" as="geometry">
                        <mxPoint x="500" y="1970" as="sourcePoint"/>
                        <mxPoint x="550" y="1920" as="targetPoint"/>
                        <Array as="points">
                            <mxPoint x="440" y="1770"/>
                        </Array>
                    </mxGeometry>
                </mxCell>
            </root>
        </mxGraphModel>
    </diagram>
</mxfile>